<svg width="62" height="63" viewBox="0 0 62 63" fill="none" xmlns="http://www.w3.org/2000/svg">
<rect width="61.4275" height="63" rx="20" fill="#F3BE20" fill-opacity="0.2"/>
<path d="M25.2313 40C24.6079 40 24.0802 39.784 23.6481 39.3519C23.216 38.9198 23 38.3921 23 37.7688V35.1125H25.6988V23L26.9738 24.275L28.2488 23L29.5025 24.275L30.7775 23L32.0525 24.275L33.3275 23L34.6025 24.275L35.8775 23L37.1525 24.275L38.4275 23V37.7688C38.4275 38.3921 38.2115 38.9198 37.7794 39.3519C37.3473 39.784 36.8196 40 36.1963 40H25.2313ZM36.1963 38.725C36.4796 38.725 36.7098 38.6365 36.8869 38.4594C37.064 38.2823 37.1525 38.0521 37.1525 37.7688V25.125H26.9738V35.1125H35.24V37.7688C35.24 38.0521 35.3285 38.2823 35.5056 38.4594C35.6827 38.6365 35.9129 38.725 36.1963 38.725ZM28.1 28.4825V27.2075H33.2V28.4825H28.1ZM28.1 31.33V30.055H33.2V31.33H28.1ZM35.1763 28.4825C35.0063 28.4825 34.8575 28.4188 34.73 28.2913C34.6025 28.1638 34.5387 28.015 34.5387 27.845C34.5387 27.675 34.6025 27.5263 34.73 27.3988C34.8575 27.2713 35.0063 27.2075 35.1763 27.2075C35.3463 27.2075 35.495 27.2713 35.6225 27.3988C35.75 27.5263 35.8138 27.675 35.8138 27.845C35.8138 28.015 35.75 28.1638 35.6225 28.2913C35.495 28.4188 35.3463 28.4825 35.1763 28.4825ZM35.1763 31.2238C35.0063 31.2238 34.8575 31.16 34.73 31.0325C34.6025 30.905 34.5387 30.7563 34.5387 30.5863C34.5387 30.4163 34.6025 30.2675 34.73 30.14C34.8575 30.0125 35.0063 29.9488 35.1763 29.9488C35.3463 29.9488 35.495 30.0125 35.6225 30.14C35.75 30.2675 35.8138 30.4163 35.8138 30.5863C35.8138 30.7563 35.75 30.905 35.6225 31.0325C35.495 31.16 35.3463 31.2238 35.1763 31.2238ZM25.21 38.725H33.965V36.3875H24.275V37.7688C24.275 38.0521 24.3635 38.2823 24.5406 38.4594C24.7177 38.6365 24.9408 38.725 25.21 38.725Z" fill="#F2561D"/>
</svg>
