<svg width="65" height="63" viewBox="0 0 65 63" fill="none" xmlns="http://www.w3.org/2000/svg">
<rect width="64.7234" height="63" rx="20" fill="#FFAD01" fill-opacity="0.2"/>
<path d="M32.2553 38.7234C32.3262 38.7234 32.4078 38.7057 32.5 38.6702C32.5922 38.6348 32.6667 38.5887 32.7234 38.5319L39.8936 31.3404C40.078 31.156 40.2163 30.9468 40.3085 30.7128C40.4007 30.4787 40.4468 30.2411 40.4468 30C40.4468 29.7589 40.4007 29.5177 40.3085 29.2766C40.2163 29.0355 40.078 28.8227 39.8936 28.6383L36.0638 24.8085C35.8794 24.6241 35.6667 24.4858 35.4255 24.3936C35.1844 24.3014 34.9433 24.2553 34.7021 24.2553C34.461 24.2553 34.2234 24.3014 33.9894 24.3936C33.7553 24.4858 33.5461 24.6241 33.3617 24.8085L32.9787 25.1915L34.7021 26.9362C34.8865 27.1348 35.0496 27.3652 35.1915 27.6277C35.3333 27.8901 35.4043 28.1773 35.4043 28.4894C35.4043 29.0284 35.195 29.5035 34.7766 29.9149C34.3582 30.3262 33.8794 30.5319 33.3404 30.5319C32.9858 30.5319 32.6915 30.4787 32.4574 30.3723C32.2234 30.266 32.0071 30.1135 31.8085 29.9149L30.2553 28.3617L26.4043 32.2128C26.3333 32.2837 26.2837 32.3582 26.2553 32.4362C26.2269 32.5142 26.2128 32.5957 26.2128 32.6809C26.2128 32.8652 26.273 33.0177 26.3936 33.1383C26.5142 33.2589 26.6667 33.3191 26.8511 33.3191C26.9362 33.3191 27.0177 33.2979 27.0957 33.2553C27.1738 33.2128 27.2411 33.1631 27.2979 33.1064L30.234 30.1702L31.1277 31.0638L28.2128 33.9787C28.1418 34.0496 28.0922 34.1277 28.0638 34.2128C28.0355 34.2979 28.0213 34.383 28.0213 34.4681C28.0213 34.6383 28.0851 34.7872 28.2128 34.9149C28.3404 35.0426 28.4894 35.1064 28.6596 35.1064C28.7447 35.1064 28.8262 35.0887 28.9043 35.0532C28.9823 35.0177 29.0496 34.9716 29.1064 34.9149L32.0426 31.9787L32.9362 32.8723L30.0213 35.7872C29.9645 35.844 29.9184 35.9184 29.883 36.0106C29.8475 36.1028 29.8298 36.1915 29.8298 36.2766C29.8298 36.4468 29.8936 36.5957 30.0213 36.7234C30.1489 36.8511 30.2979 36.9149 30.4681 36.9149C30.5532 36.9149 30.6312 36.9007 30.7021 36.8723C30.773 36.844 30.844 36.7943 30.9149 36.7234L33.8511 33.7872L34.7447 34.6809L31.8085 37.617C31.7376 37.6879 31.6879 37.766 31.6596 37.8511C31.6312 37.9362 31.617 38.0142 31.617 38.0851C31.617 38.2837 31.6738 38.4397 31.7872 38.5532C31.9007 38.6667 32.0567 38.7234 32.2553 38.7234ZM32.2553 40C31.7872 40 31.3688 39.8262 31 39.4787C30.6312 39.1312 30.4113 38.7021 30.3404 38.1915C29.8582 38.1206 29.4539 37.922 29.1277 37.5957C28.8014 37.2695 28.6028 36.8652 28.5319 36.383C28.0496 36.3121 27.6489 36.1099 27.3298 35.7766C27.0106 35.4433 26.8156 35.0426 26.7447 34.5745C26.2199 34.5035 25.7872 34.2908 25.4468 33.9362C25.1064 33.5816 24.9362 33.156 24.9362 32.6596C24.9362 32.4184 24.9823 32.1773 25.0745 31.9362C25.1667 31.695 25.305 31.4823 25.4894 31.2979L30.2553 26.5319L32.5957 28.8723C32.7092 28.9858 32.8333 29.0745 32.9681 29.1383C33.1028 29.2021 33.234 29.234 33.3617 29.234C33.5461 29.234 33.7199 29.1525 33.883 28.9894C34.0461 28.8262 34.1277 28.6525 34.1277 28.4681C34.1277 28.383 34.1028 28.2872 34.0532 28.1809C34.0035 28.0745 33.922 27.9645 33.8085 27.8511L30.766 24.8085C30.5816 24.6241 30.3688 24.4858 30.1277 24.3936C29.8865 24.3014 29.6454 24.2553 29.4043 24.2553C29.1631 24.2553 28.9255 24.3014 28.6915 24.3936C28.4574 24.4858 28.2482 24.6241 28.0638 24.8085L24.8298 28.0426C24.6312 28.2411 24.4929 28.4504 24.4149 28.6702C24.3369 28.8901 24.2908 29.1348 24.2766 29.4043C24.2624 29.6879 24.3156 29.961 24.4362 30.2234C24.5567 30.4858 24.7021 30.7234 24.8723 30.9362L23.9574 31.8511C23.6738 31.539 23.4433 31.1631 23.266 30.7234C23.0887 30.2837 23 29.8369 23 29.383C23 28.9574 23.0816 28.5496 23.2447 28.1596C23.4078 27.7695 23.6383 27.4255 23.9362 27.1277L27.1489 23.9149C27.461 23.6028 27.8156 23.3723 28.2128 23.2234C28.6099 23.0745 29.0142 23 29.4255 23C29.8369 23 30.2376 23.0745 30.6277 23.2234C31.0177 23.3723 31.3688 23.6028 31.6809 23.9149L32.0638 24.2979L32.4468 23.9149C32.7589 23.6028 33.1135 23.3723 33.5106 23.2234C33.9078 23.0745 34.3121 23 34.7234 23C35.1348 23 35.5355 23.0745 35.9255 23.2234C36.3156 23.3723 36.6667 23.6028 36.9787 23.9149L40.7872 27.7234C41.0993 28.0355 41.3333 28.3901 41.4894 28.7872C41.6454 29.1844 41.7234 29.5887 41.7234 30C41.7234 30.4113 41.6454 30.8121 41.4894 31.2021C41.3333 31.5922 41.0993 31.9433 40.7872 32.2553L33.617 39.4255C33.4326 39.6099 33.2234 39.7518 32.9894 39.8511C32.7553 39.9504 32.5106 40 32.2553 40Z" fill="#F2561D"/>
</svg>
