<svg width="264" height="100" viewBox="0 0 264 100" fill="none" xmlns="http://www.w3.org/2000/svg">
<g filter="url(#filter0_d_323_44)">
<rect x="21" y="2" width="243" height="80" rx="24" fill="white" shape-rendering="crispEdges"/>
<path d="M57.7515 52.1818L55.9091 49.0302L52.2485 48.2787L52.6606 44.7151L50.3333 41.9999L52.6606 39.309L52.2485 35.7454L55.9091 34.9939L57.7515 31.8181L61 33.3211L64.2485 31.8181L66.1151 34.9939L69.7515 35.7454L69.3394 39.309L71.6666 41.9999L69.3394 44.7151L69.7515 48.2787L66.1151 49.0302L64.2485 52.1818L61 50.6787L57.7515 52.1818ZM58.406 50.2666L61 49.1757L63.6666 50.2666L65.2909 47.8424L68.1273 47.1151L67.8363 44.2302L69.8 41.9999L67.8363 39.7211L68.1273 36.8363L65.2909 36.1575L63.6182 33.7333L61 34.8242L58.3333 33.7333L56.7091 36.1575L53.8727 36.8363L54.1636 39.7211L52.2 41.9999L54.1636 44.2302L53.8727 47.1636L56.7091 47.8424L58.406 50.2666ZM59.9576 45.2242L65.4606 39.7696L64.3697 38.7757L59.9576 43.1393L57.6545 40.7393L56.5394 41.8302L59.9576 45.2242Z" fill="#FFAD01"/>
<circle cx="61" cy="42" r="16" fill="#FFAD01" fill-opacity="0.2"/>
<path d="M90.44 39V29.176H87.096V27.8H95.24V29.176H91.896V39H90.44ZM100.528 31.432C102.362 31.432 103.28 32.44 103.28 34.456V39H101.888V35.064C101.888 34.232 101.738 33.6187 101.44 33.224C101.152 32.8293 100.682 32.632 100.032 32.632C99.3598 32.632 98.8424 32.8507 98.4798 33.288C98.1278 33.7253 97.9518 34.328 97.9518 35.096V39H96.5598V27.8H97.9518V32.984C98.1544 32.504 98.4744 32.1253 98.9118 31.848C99.3598 31.5707 99.8984 31.432 100.528 31.432ZM112.15 34.888C112.15 35.0907 112.134 35.368 112.102 35.72H106.39C106.401 36.424 106.614 36.9787 107.03 37.384C107.446 37.7787 108.006 37.976 108.71 37.976C109.692 37.976 110.342 37.6133 110.662 36.888H112.054C111.926 37.5707 111.553 38.1253 110.934 38.552C110.316 38.9787 109.574 39.192 108.71 39.192C107.58 39.192 106.678 38.8453 106.006 38.152C105.345 37.448 105.014 36.4987 105.014 35.304C105.014 34.1307 105.345 33.192 106.006 32.488C106.668 31.784 107.548 31.432 108.646 31.432C109.692 31.432 110.534 31.752 111.174 32.392C111.825 33.032 112.15 33.864 112.15 34.888ZM106.39 34.648H110.774C110.774 33.9973 110.582 33.4853 110.198 33.112C109.825 32.7387 109.302 32.552 108.63 32.552C107.969 32.552 107.436 32.744 107.03 33.128C106.636 33.512 106.422 34.0187 106.39 34.648ZM122.093 31.432C123.149 31.432 124.008 31.7947 124.669 32.52C125.33 33.2347 125.661 34.168 125.661 35.32C125.661 36.4507 125.32 37.3787 124.637 38.104C123.954 38.8293 123.08 39.192 122.013 39.192C121.448 39.192 120.925 39.0587 120.445 38.792C119.976 38.5253 119.624 38.1627 119.389 37.704V39H117.997V27.8H119.389V32.92C119.624 32.4613 119.981 32.0987 120.461 31.832C120.952 31.5653 121.496 31.432 122.093 31.432ZM121.821 37.944C122.536 37.944 123.122 37.6987 123.581 37.208C124.04 36.7173 124.269 36.088 124.269 35.32C124.269 34.552 124.04 33.9227 123.581 33.432C123.122 32.9307 122.536 32.68 121.821 32.68C121.085 32.68 120.482 32.9253 120.013 33.416C119.554 33.9067 119.325 34.5413 119.325 35.32C119.325 36.088 119.554 36.7173 120.013 37.208C120.482 37.6987 121.085 37.944 121.821 37.944ZM133.994 34.888C133.994 35.0907 133.978 35.368 133.946 35.72H128.234C128.245 36.424 128.458 36.9787 128.874 37.384C129.29 37.7787 129.85 37.976 130.554 37.976C131.535 37.976 132.186 37.6133 132.506 36.888H133.898C133.77 37.5707 133.397 38.1253 132.778 38.552C132.159 38.9787 131.418 39.192 130.554 39.192C129.423 39.192 128.522 38.8453 127.85 38.152C127.189 37.448 126.858 36.4987 126.858 35.304C126.858 34.1307 127.189 33.192 127.85 32.488C128.511 31.784 129.391 31.432 130.49 31.432C131.535 31.432 132.378 31.752 133.018 32.392C133.669 33.032 133.994 33.864 133.994 34.888ZM128.234 34.648H132.618C132.618 33.9973 132.426 33.4853 132.042 33.112C131.669 32.7387 131.146 32.552 130.474 32.552C129.813 32.552 129.279 32.744 128.874 33.128C128.479 33.512 128.266 34.0187 128.234 34.648ZM138.274 39.192C137.346 39.192 136.599 38.9627 136.034 38.504C135.479 38.0347 135.202 37.464 135.202 36.792H136.578C136.578 37.1653 136.738 37.4747 137.058 37.72C137.378 37.9547 137.804 38.072 138.338 38.072C138.754 38.072 139.084 37.976 139.33 37.784C139.575 37.592 139.698 37.3307 139.698 37C139.698 36.4773 139.458 36.1573 138.978 36.04L137.01 35.528C135.954 35.24 135.426 34.5787 135.426 33.544C135.426 32.936 135.682 32.4347 136.194 32.04C136.706 31.6347 137.372 31.432 138.194 31.432C139.09 31.432 139.783 31.64 140.274 32.056C140.775 32.4613 141.026 32.9947 141.026 33.656H139.65C139.65 33.304 139.516 33.0267 139.25 32.824C138.983 32.6107 138.61 32.504 138.13 32.504C137.746 32.504 137.426 32.5947 137.17 32.776C136.924 32.9467 136.802 33.1813 136.802 33.48C136.802 33.9813 137.074 34.296 137.618 34.424L139.458 34.936C139.98 35.0747 140.386 35.32 140.674 35.672C140.962 36.024 141.106 36.424 141.106 36.872C141.106 37.576 140.855 38.1413 140.354 38.568C139.852 38.984 139.159 39.192 138.274 39.192ZM145.835 37.832C146.219 37.832 146.528 37.8053 146.763 37.752V38.984C146.443 39.0587 146.032 39.096 145.531 39.096C145.307 39.096 145.11 39.0853 144.939 39.064C144.779 39.0427 144.587 38.984 144.363 38.888C144.139 38.792 143.952 38.6587 143.803 38.488C143.654 38.3067 143.526 38.056 143.419 37.736C143.312 37.4053 143.259 37.0107 143.259 36.552V32.792H141.931V31.624H143.259V29.288H144.651V31.624H146.507V32.792H144.651V36.248C144.651 36.8987 144.747 37.3253 144.939 37.528C145.131 37.7307 145.43 37.832 145.835 37.832ZM148.946 40.92C148.733 40.92 148.551 40.904 148.402 40.872V40.2C148.53 40.2213 148.727 40.232 148.994 40.232C149.431 40.232 149.73 40.0507 149.89 39.688C150.029 39.464 150.098 39.176 150.098 38.824C149.959 38.9947 149.741 39.08 149.442 39.08C149.133 39.08 148.877 38.9787 148.674 38.776C148.471 38.5733 148.37 38.3067 148.37 37.976C148.37 37.6453 148.477 37.3733 148.69 37.16C148.914 36.9467 149.191 36.84 149.522 36.84C149.906 36.84 150.242 37 150.53 37.32C150.829 37.6293 150.978 38.0773 150.978 38.664C150.978 39.336 150.797 39.88 150.434 40.296C150.082 40.712 149.586 40.92 148.946 40.92ZM160.335 37.832C160.719 37.832 161.028 37.8053 161.263 37.752V38.984C160.943 39.0587 160.532 39.096 160.031 39.096C159.807 39.096 159.61 39.0853 159.439 39.064C159.279 39.0427 159.087 38.984 158.863 38.888C158.639 38.792 158.452 38.6587 158.303 38.488C158.154 38.3067 158.026 38.056 157.919 37.736C157.812 37.4053 157.759 37.0107 157.759 36.552V32.792H156.431V31.624H157.759V29.288H159.151V31.624H161.007V32.792H159.151V36.248C159.151 36.8987 159.247 37.3253 159.439 37.528C159.631 37.7307 159.93 37.832 160.335 37.832ZM169.4 34.888C169.4 35.0907 169.384 35.368 169.352 35.72H163.64C163.651 36.424 163.864 36.9787 164.28 37.384C164.696 37.7787 165.256 37.976 165.96 37.976C166.942 37.976 167.592 37.6133 167.912 36.888H169.304C169.176 37.5707 168.803 38.1253 168.184 38.552C167.566 38.9787 166.824 39.192 165.96 39.192C164.83 39.192 163.928 38.8453 163.256 38.152C162.595 37.448 162.264 36.4987 162.264 35.304C162.264 34.1307 162.595 33.192 163.256 32.488C163.918 31.784 164.798 31.432 165.896 31.432C166.942 31.432 167.784 31.752 168.424 32.392C169.075 33.032 169.4 33.864 169.4 34.888ZM163.64 34.648H168.024C168.024 33.9973 167.832 33.4853 167.448 33.112C167.075 32.7387 166.552 32.552 165.88 32.552C165.219 32.552 164.686 32.744 164.28 33.128C163.886 33.512 163.672 34.0187 163.64 34.648ZM173.68 39.192C172.752 39.192 172.005 38.9627 171.44 38.504C170.885 38.0347 170.608 37.464 170.608 36.792H171.984C171.984 37.1653 172.144 37.4747 172.464 37.72C172.784 37.9547 173.211 38.072 173.744 38.072C174.16 38.072 174.491 37.976 174.736 37.784C174.981 37.592 175.104 37.3307 175.104 37C175.104 36.4773 174.864 36.1573 174.384 36.04L172.416 35.528C171.36 35.24 170.832 34.5787 170.832 33.544C170.832 32.936 171.088 32.4347 171.6 32.04C172.112 31.6347 172.779 31.432 173.6 31.432C174.496 31.432 175.189 31.64 175.68 32.056C176.181 32.4613 176.432 32.9947 176.432 33.656H175.056C175.056 33.304 174.923 33.0267 174.656 32.824C174.389 32.6107 174.016 32.504 173.536 32.504C173.152 32.504 172.832 32.5947 172.576 32.776C172.331 32.9467 172.208 33.1813 172.208 33.48C172.208 33.9813 172.48 34.296 173.024 34.424L174.864 34.936C175.387 35.0747 175.792 35.32 176.08 35.672C176.368 36.024 176.512 36.424 176.512 36.872C176.512 37.576 176.261 38.1413 175.76 38.568C175.259 38.984 174.565 39.192 173.68 39.192ZM181.241 37.832C181.625 37.832 181.934 37.8053 182.169 37.752V38.984C181.849 39.0587 181.438 39.096 180.937 39.096C180.713 39.096 180.516 39.0853 180.345 39.064C180.185 39.0427 179.993 38.984 179.769 38.888C179.545 38.792 179.358 38.6587 179.209 38.488C179.06 38.3067 178.932 38.056 178.825 37.736C178.718 37.4053 178.665 37.0107 178.665 36.552V32.792H177.337V31.624H178.665V29.288H180.057V31.624H181.913V32.792H180.057V36.248C180.057 36.8987 180.153 37.3253 180.345 37.528C180.537 37.7307 180.836 37.832 181.241 37.832ZM190.307 34.888C190.307 35.0907 190.291 35.368 190.259 35.72H184.547C184.557 36.424 184.771 36.9787 185.187 37.384C185.603 37.7787 186.163 37.976 186.867 37.976C187.848 37.976 188.499 37.6133 188.819 36.888H190.211C190.083 37.5707 189.709 38.1253 189.091 38.552C188.472 38.9787 187.731 39.192 186.867 39.192C185.736 39.192 184.835 38.8453 184.163 38.152C183.501 37.448 183.171 36.4987 183.171 35.304C183.171 34.1307 183.501 33.192 184.163 32.488C184.824 31.784 185.704 31.432 186.803 31.432C187.848 31.432 188.691 31.752 189.331 32.392C189.981 33.032 190.307 33.864 190.307 34.888ZM184.547 34.648H188.931C188.931 33.9973 188.739 33.4853 188.355 33.112C187.981 32.7387 187.459 32.552 186.786 32.552C186.125 32.552 185.592 32.744 185.187 33.128C184.792 33.512 184.579 34.0187 184.547 34.648ZM197.895 27.8H199.287V39H197.911V37.704C197.677 38.152 197.319 38.5147 196.839 38.792C196.359 39.0587 195.842 39.192 195.287 39.192C194.146 39.192 193.25 38.8293 192.599 38.104C191.959 37.3787 191.639 36.4507 191.639 35.32C191.639 34.2 191.97 33.272 192.631 32.536C193.303 31.8 194.199 31.432 195.319 31.432C195.895 31.432 196.413 31.5653 196.871 31.832C197.33 32.0987 197.677 32.4613 197.911 32.92V32.152H197.895V27.8ZM195.479 37.944C196.258 37.944 196.866 37.6933 197.303 37.192C197.751 36.68 197.975 36.056 197.975 35.32C197.975 34.5733 197.751 33.9493 197.303 33.448C196.866 32.936 196.258 32.68 195.479 32.68C194.733 32.68 194.135 32.9307 193.687 33.432C193.239 33.9227 193.015 34.552 193.015 35.32C193.015 36.088 193.239 36.7173 193.687 37.208C194.135 37.6987 194.733 37.944 195.479 37.944ZM202.18 40.92C201.967 40.92 201.786 40.904 201.636 40.872V40.2C201.764 40.2213 201.962 40.232 202.228 40.232C202.666 40.232 202.964 40.0507 203.124 39.688C203.263 39.464 203.332 39.176 203.332 38.824C203.194 38.9947 202.975 39.08 202.676 39.08C202.367 39.08 202.111 38.9787 201.908 38.776C201.706 38.5733 201.604 38.3067 201.604 37.976C201.604 37.6453 201.711 37.3733 201.924 37.16C202.148 36.9467 202.426 36.84 202.756 36.84C203.14 36.84 203.476 37 203.764 37.32C204.063 37.6293 204.212 38.0773 204.212 38.664C204.212 39.336 204.031 39.88 203.668 40.296C203.316 40.712 202.82 40.92 202.18 40.92ZM213.537 39.192C212.396 39.192 211.5 38.8293 210.849 38.104C210.209 37.3787 209.889 36.4507 209.889 35.32C209.889 34.2 210.22 33.272 210.881 32.536C211.553 31.8 212.449 31.432 213.569 31.432C214.145 31.432 214.663 31.5653 215.121 31.832C215.58 32.0987 215.927 32.4613 216.161 32.92V31.624H217.537V39H216.161V37.704C215.927 38.152 215.569 38.5147 215.089 38.792C214.609 39.0587 214.092 39.192 213.537 39.192ZM213.729 37.944C214.508 37.944 215.116 37.6933 215.553 37.192C216.001 36.68 216.225 36.056 216.225 35.32C216.225 34.5733 216.001 33.9493 215.553 33.448C215.116 32.936 214.508 32.68 213.729 32.68C212.983 32.68 212.385 32.9307 211.937 33.432C211.489 33.9227 211.265 34.552 211.265 35.32C211.265 36.088 211.489 36.7173 211.937 37.208C212.385 37.6987 212.983 37.944 213.729 37.944ZM219.934 39V31.624H221.326V32.984C221.529 32.504 221.849 32.1253 222.286 31.848C222.734 31.5707 223.273 31.432 223.902 31.432C225.737 31.432 226.654 32.44 226.654 34.456V39H225.262V35.064C225.262 34.232 225.113 33.6187 224.814 33.224C224.526 32.8293 224.057 32.632 223.406 32.632C222.734 32.632 222.217 32.8507 221.854 33.288C221.502 33.7253 221.326 34.328 221.326 35.096V39H219.934ZM234.645 27.8H236.037V39H234.661V37.704C234.427 38.152 234.069 38.5147 233.589 38.792C233.109 39.0587 232.592 39.192 232.037 39.192C230.896 39.192 230 38.8293 229.349 38.104C228.709 37.3787 228.389 36.4507 228.389 35.32C228.389 34.2 228.72 33.272 229.381 32.536C230.053 31.8 230.949 31.432 232.069 31.432C232.645 31.432 233.163 31.5653 233.621 31.832C234.08 32.0987 234.427 32.4613 234.661 32.92V32.152H234.645V27.8ZM232.229 37.944C233.008 37.944 233.616 37.6933 234.053 37.192C234.501 36.68 234.725 36.056 234.725 35.32C234.725 34.5733 234.501 33.9493 234.053 33.448C233.616 32.936 233.008 32.68 232.229 32.68C231.483 32.68 230.885 32.9307 230.437 33.432C229.989 33.9227 229.765 34.552 229.765 35.32C229.765 36.088 229.989 36.7173 230.437 37.208C230.885 37.6987 231.483 37.944 232.229 37.944ZM91.272 55.192C90.152 55.192 89.2613 54.84 88.6 54.136C87.9387 53.4213 87.608 52.4827 87.608 51.32C87.608 50.1573 87.9387 49.224 88.6 48.52C89.2613 47.8053 90.152 47.448 91.272 47.448C92.264 47.448 93.064 47.6987 93.672 48.2C94.28 48.6907 94.6267 49.352 94.712 50.184H93.32C93.128 49.192 92.4453 48.696 91.272 48.696C90.5573 48.696 89.9973 48.9307 89.592 49.4C89.1867 49.8587 88.984 50.4987 88.984 51.32C88.984 52.1413 89.1867 52.7867 89.592 53.256C89.9973 53.7147 90.5573 53.944 91.272 53.944C92.4347 53.944 93.1173 53.464 93.32 52.504H94.712C94.6267 53.3253 94.28 53.9813 93.672 54.472C93.064 54.952 92.264 55.192 91.272 55.192ZM103.15 50.888C103.15 51.0907 103.134 51.368 103.102 51.72H97.3903C97.4009 52.424 97.6143 52.9787 98.0303 53.384C98.4463 53.7787 99.0063 53.976 99.7103 53.976C100.692 53.976 101.342 53.6133 101.662 52.888H103.054C102.926 53.5707 102.553 54.1253 101.934 54.552C101.316 54.9787 100.574 55.192 99.7103 55.192C98.5796 55.192 97.6783 54.8453 97.0063 54.152C96.3449 53.448 96.0143 52.4987 96.0143 51.304C96.0143 50.1307 96.3449 49.192 97.0063 48.488C97.6676 47.784 98.5476 47.432 99.6463 47.432C100.692 47.432 101.534 47.752 102.174 48.392C102.825 49.032 103.15 49.864 103.15 50.888ZM97.3903 50.648H101.774C101.774 49.9973 101.582 49.4853 101.198 49.112C100.825 48.7387 100.302 48.552 99.6302 48.552C98.9689 48.552 98.4356 48.744 98.0303 49.128C97.6356 49.512 97.4223 50.0187 97.3903 50.648ZM104.95 55V47.624H106.342V49.304C106.481 48.7173 106.753 48.2747 107.158 47.976C107.563 47.6667 108.011 47.512 108.502 47.512C108.79 47.512 109.014 47.5333 109.174 47.576V48.856C109.014 48.824 108.785 48.808 108.486 48.808C107.793 48.808 107.259 49.0853 106.886 49.64C106.523 50.1947 106.342 50.904 106.342 51.768V55H104.95ZM114.116 53.832C114.5 53.832 114.809 53.8053 115.044 53.752V54.984C114.724 55.0587 114.313 55.096 113.812 55.096C113.588 55.096 113.391 55.0853 113.22 55.064C113.06 55.0427 112.868 54.984 112.644 54.888C112.42 54.792 112.233 54.6587 112.084 54.488C111.935 54.3067 111.807 54.056 111.7 53.736C111.593 53.4053 111.54 53.0107 111.54 52.552V48.792H110.212V47.624H111.54V45.288H112.932V47.624H114.788V48.792H112.932V52.248C112.932 52.8987 113.028 53.3253 113.22 53.528C113.412 53.7307 113.711 53.832 114.116 53.832ZM117.435 46.36C117.105 46.36 116.833 46.2533 116.619 46.04C116.406 45.8267 116.299 45.56 116.299 45.24C116.299 44.92 116.406 44.6533 116.619 44.44C116.833 44.216 117.105 44.104 117.435 44.104C117.755 44.104 118.022 44.216 118.235 44.44C118.449 44.6533 118.555 44.92 118.555 45.24C118.555 45.56 118.449 45.8267 118.235 46.04C118.022 46.2533 117.755 46.36 117.435 46.36ZM116.731 55V47.624H118.123V55H116.731ZM121.232 46.344C121.232 45.9067 121.285 45.5227 121.392 45.192C121.509 44.8613 121.653 44.6053 121.824 44.424C121.995 44.232 122.192 44.0827 122.416 43.976C122.64 43.8587 122.843 43.784 123.024 43.752C123.205 43.72 123.392 43.704 123.584 43.704C124.064 43.704 124.437 43.7573 124.704 43.864V45.064C124.427 44.9893 124.176 44.952 123.952 44.952C123.781 44.952 123.627 44.968 123.488 45C123.36 45.0213 123.221 45.0747 123.072 45.16C122.933 45.2453 122.821 45.384 122.736 45.576C122.661 45.768 122.624 46.0133 122.624 46.312V47.624H124.704V48.792H122.624V55H121.232V48.792H119.664V47.624H121.232V46.344ZM126.848 44.104C127.168 44.104 127.435 44.216 127.648 44.44C127.861 44.6533 127.968 44.92 127.968 45.24C127.968 45.56 127.861 45.8267 127.648 46.04C127.435 46.2533 127.168 46.36 126.848 46.36C126.517 46.36 126.245 46.2533 126.032 46.04C125.819 45.8267 125.712 45.56 125.712 45.24C125.712 44.92 125.819 44.6533 126.032 44.44C126.245 44.216 126.517 44.104 126.848 44.104ZM126.144 55V47.624H127.536V55H126.144ZM136.478 50.888C136.478 51.0907 136.462 51.368 136.43 51.72H130.718C130.729 52.424 130.942 52.9787 131.358 53.384C131.774 53.7787 132.334 53.976 133.038 53.976C134.02 53.976 134.67 53.6133 134.99 52.888H136.382C136.254 53.5707 135.881 54.1253 135.262 54.552C134.644 54.9787 133.902 55.192 133.038 55.192C131.908 55.192 131.006 54.8453 130.334 54.152C129.673 53.448 129.342 52.4987 129.342 51.304C129.342 50.1307 129.673 49.192 130.334 48.488C130.996 47.784 131.876 47.432 132.974 47.432C134.02 47.432 134.862 47.752 135.502 48.392C136.153 49.032 136.478 49.864 136.478 50.888ZM130.718 50.648H135.102C135.102 49.9973 134.91 49.4853 134.526 49.112C134.153 48.7387 133.63 48.552 132.958 48.552C132.297 48.552 131.764 48.744 131.358 49.128C130.964 49.512 130.75 50.0187 130.718 50.648ZM144.067 43.8H145.459V55H144.083V53.704C143.848 54.152 143.491 54.5147 143.011 54.792C142.531 55.0587 142.014 55.192 141.459 55.192C140.318 55.192 139.422 54.8293 138.771 54.104C138.131 53.3787 137.811 52.4507 137.811 51.32C137.811 50.2 138.142 49.272 138.803 48.536C139.475 47.8 140.371 47.432 141.491 47.432C142.067 47.432 142.584 47.5653 143.043 47.832C143.502 48.0987 143.848 48.4613 144.083 48.92V48.152H144.067V43.8ZM141.651 53.944C142.43 53.944 143.038 53.6933 143.475 53.192C143.923 52.68 144.147 52.056 144.147 51.32C144.147 50.5733 143.923 49.9493 143.475 49.448C143.038 48.936 142.43 48.68 141.651 48.68C140.904 48.68 140.307 48.9307 139.859 49.432C139.411 49.9227 139.187 50.552 139.187 51.32C139.187 52.088 139.411 52.7173 139.859 53.208C140.307 53.6987 140.904 53.944 141.651 53.944ZM154.991 53.832C155.375 53.832 155.684 53.8053 155.919 53.752V54.984C155.599 55.0587 155.188 55.096 154.687 55.096C154.463 55.096 154.266 55.0853 154.095 55.064C153.935 55.0427 153.743 54.984 153.519 54.888C153.295 54.792 153.108 54.6587 152.959 54.488C152.81 54.3067 152.682 54.056 152.575 53.736C152.468 53.4053 152.415 53.0107 152.415 52.552V48.792H151.087V47.624H152.415V45.288H153.807V47.624H155.663V48.792H153.807V52.248C153.807 52.8987 153.903 53.3253 154.095 53.528C154.287 53.7307 154.586 53.832 154.991 53.832ZM160.569 55.192C159.427 55.192 158.531 54.8293 157.881 54.104C157.241 53.3787 156.921 52.4507 156.921 51.32C156.921 50.2 157.251 49.272 157.913 48.536C158.585 47.8 159.481 47.432 160.601 47.432C161.177 47.432 161.694 47.5653 162.153 47.832C162.611 48.0987 162.958 48.4613 163.193 48.92V47.624H164.569V55H163.193V53.704C162.958 54.152 162.601 54.5147 162.121 54.792C161.641 55.0587 161.123 55.192 160.569 55.192ZM160.761 53.944C161.539 53.944 162.147 53.6933 162.585 53.192C163.033 52.68 163.257 52.056 163.257 51.32C163.257 50.5733 163.033 49.9493 162.585 49.448C162.147 48.936 161.539 48.68 160.761 48.68C160.014 48.68 159.417 48.9307 158.969 49.432C158.521 49.9227 158.297 50.552 158.297 51.32C158.297 52.088 158.521 52.7173 158.969 53.208C159.417 53.6987 160.014 53.944 160.761 53.944ZM166.966 55V43.8H168.358V55H166.966ZM177.307 50.888C177.307 51.0907 177.291 51.368 177.259 51.72H171.547C171.557 52.424 171.771 52.9787 172.187 53.384C172.603 53.7787 173.163 53.976 173.867 53.976C174.848 53.976 175.499 53.6133 175.819 52.888H177.211C177.083 53.5707 176.709 54.1253 176.091 54.552C175.472 54.9787 174.731 55.192 173.867 55.192C172.736 55.192 171.835 54.8453 171.163 54.152C170.501 53.448 170.171 52.4987 170.171 51.304C170.171 50.1307 170.501 49.192 171.163 48.488C171.824 47.784 172.704 47.432 173.803 47.432C174.848 47.432 175.691 47.752 176.331 48.392C176.981 49.032 177.307 49.864 177.307 50.888ZM171.547 50.648H175.931C175.931 49.9973 175.739 49.4853 175.355 49.112C174.981 48.7387 174.459 48.552 173.786 48.552C173.125 48.552 172.592 48.744 172.187 49.128C171.792 49.512 171.579 50.0187 171.547 50.648ZM179.106 55V47.624H180.498V48.984C180.701 48.504 181.021 48.1253 181.458 47.848C181.906 47.5707 182.445 47.432 183.074 47.432C184.909 47.432 185.826 48.44 185.826 50.456V55H184.434V51.064C184.434 50.232 184.285 49.6187 183.986 49.224C183.698 48.8293 183.229 48.632 182.578 48.632C181.906 48.632 181.389 48.8507 181.026 49.288C180.674 49.7253 180.498 50.328 180.498 51.096V55H179.106ZM191.038 53.832C191.422 53.832 191.731 53.8053 191.966 53.752V54.984C191.646 55.0587 191.235 55.096 190.734 55.096C190.51 55.096 190.313 55.0853 190.142 55.064C189.982 55.0427 189.79 54.984 189.566 54.888C189.342 54.792 189.155 54.6587 189.006 54.488C188.857 54.3067 188.729 54.056 188.622 53.736C188.515 53.4053 188.462 53.0107 188.462 52.552V48.792H187.134V47.624H188.462V45.288H189.854V47.624H191.71V48.792H189.854V52.248C189.854 52.8987 189.95 53.3253 190.142 53.528C190.334 53.7307 190.633 53.832 191.038 53.832ZM196.039 55.192C195.111 55.192 194.365 54.9627 193.799 54.504C193.245 54.0347 192.967 53.464 192.967 52.792H194.343C194.343 53.1653 194.503 53.4747 194.823 53.72C195.143 53.9547 195.57 54.072 196.103 54.072C196.519 54.072 196.85 53.976 197.095 53.784C197.341 53.592 197.463 53.3307 197.463 53C197.463 52.4773 197.223 52.1573 196.743 52.04L194.775 51.528C193.719 51.24 193.191 50.5787 193.191 49.544C193.191 48.936 193.447 48.4347 193.959 48.04C194.471 47.6347 195.138 47.432 195.959 47.432C196.855 47.432 197.549 47.64 198.039 48.056C198.541 48.4613 198.791 48.9947 198.791 49.656H197.415C197.415 49.304 197.282 49.0267 197.015 48.824C196.749 48.6107 196.375 48.504 195.895 48.504C195.511 48.504 195.191 48.5947 194.935 48.776C194.69 48.9467 194.567 49.1813 194.567 49.48C194.567 49.9813 194.839 50.296 195.383 50.424L197.223 50.936C197.746 51.0747 198.151 51.32 198.439 51.672C198.727 52.024 198.871 52.424 198.871 52.872C198.871 53.576 198.621 54.1413 198.119 54.568C197.618 54.984 196.925 55.192 196.039 55.192Z" fill="#525256"/>
</g>
<defs>
<filter id="filter0_d_323_44" x="0" y="0" width="264" height="100" filterUnits="userSpaceOnUse" color-interpolation-filters="sRGB">
<feFlood flood-opacity="0" result="BackgroundImageFix"/>
<feColorMatrix in="SourceAlpha" type="matrix" values="0 0 0 0 0 0 0 0 0 0 0 0 0 0 0 0 0 0 127 0" result="hardAlpha"/>
<feOffset dx="-11" dy="8"/>
<feGaussianBlur stdDeviation="5"/>
<feComposite in2="hardAlpha" operator="out"/>
<feColorMatrix type="matrix" values="0 0 0 0 0.992157 0 0 0 0 0.8 0 0 0 0 0.356863 0 0 0 0.3 0"/>
<feBlend mode="normal" in2="BackgroundImageFix" result="effect1_dropShadow_323_44"/>
<feBlend mode="normal" in="SourceGraphic" in2="effect1_dropShadow_323_44" result="shape"/>
</filter>
</defs>
</svg>
