<svg width="64" height="63" viewBox="0 0 64 63" fill="none" xmlns="http://www.w3.org/2000/svg">
<rect width="63.5201" height="63" rx="20" fill="#FFAD01" fill-opacity="0.2"/>
<path d="M31.7601 31.2126C30.5556 31.2126 29.57 30.8293 28.8035 30.0628C28.037 29.2963 27.6538 28.3108 27.6538 27.1063C27.6538 25.9018 28.037 24.9163 28.8035 24.1498C29.57 23.3833 30.5556 23 31.7601 23C32.9646 23 33.9501 23.3833 34.7166 24.1498C35.4831 24.9163 35.8663 25.9018 35.8663 27.1063C35.8663 28.3108 35.4831 29.2963 34.7166 30.0628C33.9501 30.8293 32.9646 31.2126 31.7601 31.2126ZM23 40V37.4267C23 36.7332 23.1734 36.1401 23.5201 35.6473C23.8669 35.1546 24.314 34.7805 24.8615 34.525C26.0843 33.9775 27.2568 33.5668 28.3792 33.2931C29.5016 33.0193 30.6286 32.8824 31.7601 32.8824C32.8916 32.8824 34.014 33.0239 35.1272 33.3068C36.2405 33.5896 37.4085 33.9957 38.6312 34.525C39.197 34.7805 39.6532 35.1546 40 35.6473C40.3468 36.1401 40.5201 36.7332 40.5201 37.4267V40H23ZM24.6425 38.3575H38.8776V37.4267C38.8776 37.1347 38.7909 36.8564 38.6176 36.5918C38.4442 36.3272 38.2297 36.131 37.9742 36.0032C36.8062 35.4375 35.7386 35.0497 34.7713 34.8398C33.8041 34.6299 32.8003 34.525 31.7601 34.525C30.7198 34.525 29.7069 34.6299 28.7214 34.8398C27.7359 35.0497 26.6683 35.4375 25.5185 36.0032C25.263 36.131 25.0531 36.3272 24.8889 36.5918C24.7246 36.8564 24.6425 37.1347 24.6425 37.4267V38.3575ZM31.7601 29.57C32.4718 29.57 33.0604 29.3374 33.5258 28.872C33.9911 28.4066 34.2238 27.818 34.2238 27.1063C34.2238 26.3945 33.9911 25.806 33.5258 25.3406C33.0604 24.8752 32.4718 24.6425 31.7601 24.6425C31.0483 24.6425 30.4597 24.8752 29.9944 25.3406C29.529 25.806 29.2963 26.3945 29.2963 27.1063C29.2963 27.818 29.529 28.4066 29.9944 28.872C30.4597 29.3374 31.0483 29.57 31.7601 29.57Z" fill="#F2561D"/>
</svg>
